<mxfile host="app.diagrams.net" modified="2024-01-27T12:16:54.819Z" agent="Mozilla/5.0 (X11; Linux x86_64; rv:122.0) Gecko/20100101 Firefox/122.0" etag="Ox7WyZFyU7KevLTazHCH" version="23.0.2" type="google">
  <diagram name="Page-1" id="c4acf3e9-155e-7222-9cf6-157b1a14988f">
    <mxGraphModel grid="1" page="1" gridSize="10" guides="1" tooltips="1" connect="1" arrows="1" fold="1" pageScale="1" pageWidth="850" pageHeight="1100" background="none" math="0" shadow="0">
      <root>
        <mxCell id="0" />
        <mxCell id="1" parent="0" />
        <mxCell id="Nsb_JRrZXJSzPaWM62er-3" value="&lt;p style=&quot;margin:0px;margin-top:4px;text-align:center;&quot;&gt;Field&lt;/p&gt;&lt;hr size=&quot;1&quot;&gt;&lt;p style=&quot;margin:0px;margin-left:4px;&quot;&gt;- value&lt;br&gt;&lt;/p&gt;&lt;hr size=&quot;1&quot;&gt;&lt;div style=&quot;display: inline-block;&quot;&gt;&amp;nbsp;+ is_valid(value)&lt;/div&gt;&lt;p style=&quot;margin:0px;margin-left:4px;&quot;&gt;&lt;/p&gt;" style="verticalAlign=top;align=left;overflow=fill;fontSize=12;fontFamily=Helvetica;html=1;rounded=0;shadow=0;comic=0;labelBackgroundColor=none;strokeWidth=1" vertex="1" parent="1">
          <mxGeometry x="1339" y="16" width="190" height="90" as="geometry" />
        </mxCell>
        <mxCell id="Nsb_JRrZXJSzPaWM62er-6" value="&lt;p style=&quot;margin:0px;margin-top:4px;text-align:center;&quot;&gt;Address&lt;/p&gt;&lt;hr size=&quot;1&quot;&gt;&lt;p style=&quot;margin:0px;margin-left:4px;&quot;&gt;&lt;br&gt;&lt;/p&gt;&lt;hr size=&quot;1&quot;&gt;&lt;div style=&quot;display: inline-block;&quot;&gt;&amp;nbsp;+ is_valid(value)&lt;/div&gt;&lt;p style=&quot;margin:0px;margin-left:4px;&quot;&gt;&lt;/p&gt;" style="verticalAlign=top;align=left;overflow=fill;fontSize=12;fontFamily=Helvetica;html=1;rounded=0;shadow=0;comic=0;labelBackgroundColor=none;strokeWidth=1" vertex="1" parent="1">
          <mxGeometry x="1060" y="231" width="190" height="90" as="geometry" />
        </mxCell>
        <mxCell id="Nsb_JRrZXJSzPaWM62er-35" style="edgeStyle=orthogonalEdgeStyle;rounded=0;orthogonalLoop=1;jettySize=auto;html=1;exitX=1;exitY=0.5;exitDx=0;exitDy=0;entryX=0.592;entryY=1;entryDx=0;entryDy=0;endArrow=block;endFill=0;entryPerimeter=0;" edge="1" parent="1" source="Nsb_JRrZXJSzPaWM62er-15" target="Nsb_JRrZXJSzPaWM62er-3">
          <mxGeometry relative="1" as="geometry" />
        </mxCell>
        <mxCell id="Nsb_JRrZXJSzPaWM62er-15" value="&lt;p style=&quot;margin:0px;margin-top:4px;text-align:center;&quot;&gt;Title&lt;/p&gt;&lt;hr size=&quot;1&quot;&gt;&lt;p style=&quot;margin:0px;margin-left:4px;&quot;&gt;&lt;br&gt;&lt;/p&gt;&lt;hr size=&quot;1&quot;&gt;&lt;div style=&quot;display: inline-block;&quot;&gt;&amp;nbsp;+ is_valid(value)&lt;/div&gt;&lt;p style=&quot;margin:0px;margin-left:4px;&quot;&gt;&lt;/p&gt;" style="verticalAlign=top;align=left;overflow=fill;fontSize=12;fontFamily=Helvetica;html=1;rounded=0;shadow=0;comic=0;labelBackgroundColor=none;strokeWidth=1" vertex="1" parent="1">
          <mxGeometry x="1060" y="571" width="190" height="90" as="geometry" />
        </mxCell>
        <mxCell id="Nsb_JRrZXJSzPaWM62er-16" value="&lt;p style=&quot;margin:0px;margin-top:4px;text-align:center;&quot;&gt;Text&lt;/p&gt;&lt;hr size=&quot;1&quot;&gt;&lt;p style=&quot;margin:0px;margin-left:4px;&quot;&gt;&lt;br&gt;&lt;/p&gt;&lt;hr size=&quot;1&quot;&gt;&lt;div style=&quot;display: inline-block;&quot;&gt;&amp;nbsp;+ is_valid(value)&lt;/div&gt;&lt;p style=&quot;margin:0px;margin-left:4px;&quot;&gt;&lt;/p&gt;" style="verticalAlign=top;align=left;overflow=fill;fontSize=12;fontFamily=Helvetica;html=1;rounded=0;shadow=0;comic=0;labelBackgroundColor=none;strokeWidth=1" vertex="1" parent="1">
          <mxGeometry x="1060" y="681" width="190" height="90" as="geometry" />
        </mxCell>
        <mxCell id="Nsb_JRrZXJSzPaWM62er-33" style="edgeStyle=orthogonalEdgeStyle;rounded=0;orthogonalLoop=1;jettySize=auto;html=1;exitX=1;exitY=0.5;exitDx=0;exitDy=0;endArrow=block;endFill=0;entryX=0.924;entryY=1.006;entryDx=0;entryDy=0;entryPerimeter=0;" edge="1" parent="1" source="Nsb_JRrZXJSzPaWM62er-17" target="Nsb_JRrZXJSzPaWM62er-3">
          <mxGeometry relative="1" as="geometry">
            <mxPoint x="1504" y="111" as="targetPoint" />
          </mxGeometry>
        </mxCell>
        <mxCell id="Nsb_JRrZXJSzPaWM62er-17" value="&lt;p style=&quot;margin:0px;margin-top:4px;text-align:center;&quot;&gt;Tag&lt;/p&gt;&lt;hr size=&quot;1&quot;&gt;&lt;p style=&quot;margin:0px;margin-left:4px;&quot;&gt;&lt;br&gt;&lt;/p&gt;&lt;hr size=&quot;1&quot;&gt;&lt;div style=&quot;display: inline-block;&quot;&gt;&amp;nbsp;+ is_valid(value)&lt;/div&gt;&lt;p style=&quot;margin:0px;margin-left:4px;&quot;&gt;&lt;/p&gt;" style="verticalAlign=top;align=left;overflow=fill;fontSize=12;fontFamily=Helvetica;html=1;rounded=0;shadow=0;comic=0;labelBackgroundColor=none;strokeWidth=1" vertex="1" parent="1">
          <mxGeometry x="1060" y="781" width="190" height="90" as="geometry" />
        </mxCell>
        <mxCell id="Nsb_JRrZXJSzPaWM62er-39" style="edgeStyle=orthogonalEdgeStyle;rounded=0;orthogonalLoop=1;jettySize=auto;html=1;exitX=1;exitY=0.5;exitDx=0;exitDy=0;entryX=0;entryY=0.75;entryDx=0;entryDy=0;endArrow=block;endFill=0;" edge="1" parent="1" source="Nsb_JRrZXJSzPaWM62er-18" target="Nsb_JRrZXJSzPaWM62er-3">
          <mxGeometry relative="1" as="geometry">
            <Array as="points">
              <mxPoint x="1314" y="166" />
              <mxPoint x="1314" y="84" />
            </Array>
          </mxGeometry>
        </mxCell>
        <mxCell id="Nsb_JRrZXJSzPaWM62er-18" value="&lt;p style=&quot;margin:0px;margin-top:4px;text-align:center;&quot;&gt;Phone&lt;/p&gt;&lt;hr size=&quot;1&quot;&gt;&lt;p style=&quot;margin:0px;margin-left:4px;&quot;&gt;&lt;br&gt;&lt;/p&gt;&lt;hr size=&quot;1&quot;&gt;&lt;div style=&quot;display: inline-block;&quot;&gt;&amp;nbsp;+ is_valid(value)&lt;/div&gt;&lt;p style=&quot;margin:0px;margin-left:4px;&quot;&gt;&lt;/p&gt;" style="verticalAlign=top;align=left;overflow=fill;fontSize=12;fontFamily=Helvetica;html=1;rounded=0;shadow=0;comic=0;labelBackgroundColor=none;strokeWidth=1" vertex="1" parent="1">
          <mxGeometry x="1060" y="121" width="190" height="90" as="geometry" />
        </mxCell>
        <mxCell id="Nsb_JRrZXJSzPaWM62er-19" value="&lt;p style=&quot;margin:0px;margin-top:4px;text-align:center;&quot;&gt;Name&lt;/p&gt;&lt;hr size=&quot;1&quot;&gt;&lt;p style=&quot;margin:0px;margin-left:4px;&quot;&gt;&lt;br&gt;&lt;/p&gt;&lt;hr size=&quot;1&quot;&gt;&lt;div style=&quot;display: inline-block;&quot;&gt;&amp;nbsp;+ is_valid(value)&lt;/div&gt;&lt;p style=&quot;margin:0px;margin-left:4px;&quot;&gt;&lt;/p&gt;" style="verticalAlign=top;align=left;overflow=fill;fontSize=12;fontFamily=Helvetica;html=1;rounded=0;shadow=0;comic=0;labelBackgroundColor=none;strokeWidth=1" vertex="1" parent="1">
          <mxGeometry x="1060" y="16" width="190" height="90" as="geometry" />
        </mxCell>
        <mxCell id="Nsb_JRrZXJSzPaWM62er-20" value="&lt;p style=&quot;margin:0px;margin-top:4px;text-align:center;&quot;&gt;EmailAddress&lt;br&gt;&lt;/p&gt;&lt;hr size=&quot;1&quot;&gt;&lt;p style=&quot;margin:0px;margin-left:4px;&quot;&gt;&lt;br&gt;&lt;/p&gt;&lt;hr size=&quot;1&quot;&gt;&lt;div style=&quot;display: inline-block;&quot;&gt;&amp;nbsp;+ is_valid(value)&lt;/div&gt;&lt;p style=&quot;margin:0px;margin-left:4px;&quot;&gt;&lt;/p&gt;" style="verticalAlign=top;align=left;overflow=fill;fontSize=12;fontFamily=Helvetica;html=1;rounded=0;shadow=0;comic=0;labelBackgroundColor=none;strokeWidth=1" vertex="1" parent="1">
          <mxGeometry x="1060" y="341" width="190" height="90" as="geometry" />
        </mxCell>
        <mxCell id="Nsb_JRrZXJSzPaWM62er-21" value="&lt;p style=&quot;margin:0px;margin-top:4px;text-align:center;&quot;&gt;Date&lt;/p&gt;&lt;hr size=&quot;1&quot;&gt;&lt;p style=&quot;margin:0px;margin-left:4px;&quot;&gt;&lt;br&gt;&lt;/p&gt;&lt;hr size=&quot;1&quot;&gt;&lt;div style=&quot;display: inline-block;&quot;&gt;&amp;nbsp;+ is_valid(value)&lt;/div&gt;&lt;p style=&quot;margin:0px;margin-left:4px;&quot;&gt;&lt;/p&gt;" style="verticalAlign=top;align=left;overflow=fill;fontSize=12;fontFamily=Helvetica;html=1;rounded=0;shadow=0;comic=0;labelBackgroundColor=none;strokeWidth=1" vertex="1" parent="1">
          <mxGeometry x="1060" y="451" width="190" height="90" as="geometry" />
        </mxCell>
        <mxCell id="Nsb_JRrZXJSzPaWM62er-40" style="edgeStyle=orthogonalEdgeStyle;rounded=0;orthogonalLoop=1;jettySize=auto;html=1;exitX=0.75;exitY=0;exitDx=0;exitDy=0;entryX=0;entryY=0.5;entryDx=0;entryDy=0;startArrow=diamond;startFill=1;" edge="1" parent="1" source="Nsb_JRrZXJSzPaWM62er-23" target="Nsb_JRrZXJSzPaWM62er-19">
          <mxGeometry relative="1" as="geometry" />
        </mxCell>
        <mxCell id="Nsb_JRrZXJSzPaWM62er-41" style="edgeStyle=orthogonalEdgeStyle;rounded=0;orthogonalLoop=1;jettySize=auto;html=1;exitX=1;exitY=0.25;exitDx=0;exitDy=0;entryX=0;entryY=0.5;entryDx=0;entryDy=0;startArrow=diamond;startFill=1;" edge="1" parent="1" source="Nsb_JRrZXJSzPaWM62er-23" target="Nsb_JRrZXJSzPaWM62er-18">
          <mxGeometry relative="1" as="geometry" />
        </mxCell>
        <mxCell id="Nsb_JRrZXJSzPaWM62er-42" style="edgeStyle=orthogonalEdgeStyle;rounded=0;orthogonalLoop=1;jettySize=auto;html=1;exitX=1;exitY=0.5;exitDx=0;exitDy=0;entryX=0;entryY=0.5;entryDx=0;entryDy=0;startArrow=diamond;startFill=1;" edge="1" parent="1" source="Nsb_JRrZXJSzPaWM62er-23" target="Nsb_JRrZXJSzPaWM62er-6">
          <mxGeometry relative="1" as="geometry" />
        </mxCell>
        <mxCell id="Nsb_JRrZXJSzPaWM62er-43" style="edgeStyle=orthogonalEdgeStyle;rounded=0;orthogonalLoop=1;jettySize=auto;html=1;exitX=1;exitY=0.75;exitDx=0;exitDy=0;entryX=0;entryY=0.5;entryDx=0;entryDy=0;startArrow=diamond;startFill=1;" edge="1" parent="1" source="Nsb_JRrZXJSzPaWM62er-23" target="Nsb_JRrZXJSzPaWM62er-20">
          <mxGeometry relative="1" as="geometry" />
        </mxCell>
        <mxCell id="Nsb_JRrZXJSzPaWM62er-44" style="edgeStyle=orthogonalEdgeStyle;rounded=0;orthogonalLoop=1;jettySize=auto;html=1;exitX=0.75;exitY=1;exitDx=0;exitDy=0;entryX=0;entryY=0.5;entryDx=0;entryDy=0;startArrow=diamond;startFill=1;" edge="1" parent="1" source="Nsb_JRrZXJSzPaWM62er-23" target="Nsb_JRrZXJSzPaWM62er-21">
          <mxGeometry relative="1" as="geometry" />
        </mxCell>
        <mxCell id="Nsb_JRrZXJSzPaWM62er-23" value="&lt;p style=&quot;margin:0px;margin-top:4px;text-align:center;&quot;&gt;Contact&lt;/p&gt;&lt;hr size=&quot;1&quot;&gt;&lt;p style=&quot;margin:0px;margin-left:4px;&quot;&gt;&amp;nbsp;- name&lt;br&gt;&amp;nbsp;- phones&lt;br&gt;&amp;nbsp;- address&lt;br&gt;&amp;nbsp;- email&lt;br&gt;&amp;nbsp;- birthday&lt;br&gt;&lt;/p&gt;&lt;hr size=&quot;1&quot;&gt;&amp;nbsp;+ add_phone(new_phone)&lt;br&gt;&amp;nbsp;+ edit_phone(old_phone, new_phone)&lt;br&gt;&amp;nbsp;+ remove_phone(old_phone)&lt;br&gt;&amp;nbsp;- __str__()&lt;p style=&quot;margin:0px;margin-left:4px;&quot;&gt;&lt;/p&gt;" style="verticalAlign=top;align=left;overflow=fill;fontSize=12;fontFamily=Helvetica;html=1;rounded=0;shadow=0;comic=0;labelBackgroundColor=none;strokeWidth=1" vertex="1" parent="1">
          <mxGeometry x="754" y="181" width="210" height="190" as="geometry" />
        </mxCell>
        <mxCell id="Nsb_JRrZXJSzPaWM62er-45" style="edgeStyle=orthogonalEdgeStyle;rounded=0;orthogonalLoop=1;jettySize=auto;html=1;exitX=1;exitY=0.25;exitDx=0;exitDy=0;entryX=0;entryY=0.5;entryDx=0;entryDy=0;startArrow=diamond;startFill=1;" edge="1" parent="1" source="Nsb_JRrZXJSzPaWM62er-25" target="Nsb_JRrZXJSzPaWM62er-15">
          <mxGeometry relative="1" as="geometry" />
        </mxCell>
        <mxCell id="Nsb_JRrZXJSzPaWM62er-46" style="edgeStyle=orthogonalEdgeStyle;rounded=0;orthogonalLoop=1;jettySize=auto;html=1;exitX=1;exitY=0.5;exitDx=0;exitDy=0;entryX=0;entryY=0.5;entryDx=0;entryDy=0;startArrow=diamond;startFill=1;" edge="1" parent="1" source="Nsb_JRrZXJSzPaWM62er-25" target="Nsb_JRrZXJSzPaWM62er-16">
          <mxGeometry relative="1" as="geometry" />
        </mxCell>
        <mxCell id="Nsb_JRrZXJSzPaWM62er-47" style="edgeStyle=orthogonalEdgeStyle;rounded=0;orthogonalLoop=1;jettySize=auto;html=1;exitX=1;exitY=0.75;exitDx=0;exitDy=0;entryX=0;entryY=0.5;entryDx=0;entryDy=0;startArrow=diamond;startFill=1;" edge="1" parent="1" source="Nsb_JRrZXJSzPaWM62er-25" target="Nsb_JRrZXJSzPaWM62er-17">
          <mxGeometry relative="1" as="geometry" />
        </mxCell>
        <mxCell id="Nsb_JRrZXJSzPaWM62er-25" value="&lt;p style=&quot;margin:0px;margin-top:4px;text-align:center;&quot;&gt;Note&lt;/p&gt;&lt;hr size=&quot;1&quot;&gt;&lt;p style=&quot;margin:0px;margin-left:4px;&quot;&gt;&amp;nbsp;- title&lt;br&gt;&amp;nbsp;- text&lt;br&gt;&amp;nbsp;- tags&lt;br&gt;&amp;nbsp;- creation_date&lt;br&gt;&lt;/p&gt;&lt;hr size=&quot;1&quot;&gt;&amp;nbsp;+ add_tag(tag)&lt;br&gt;&amp;nbsp;+ remove_tag(tag)&lt;br&gt;&amp;nbsp;+ find_tag(tag)&lt;br&gt;&amp;nbsp;+ change_tag(old_tag, new_tag)&lt;br&gt;&amp;nbsp;- __str__()&lt;p style=&quot;margin:0px;margin-left:4px;&quot;&gt;&lt;/p&gt;" style="verticalAlign=top;align=left;overflow=fill;fontSize=12;fontFamily=Helvetica;html=1;rounded=0;shadow=0;comic=0;labelBackgroundColor=none;strokeWidth=1" vertex="1" parent="1">
          <mxGeometry x="766.5" y="631" width="185" height="190" as="geometry" />
        </mxCell>
        <mxCell id="Nsb_JRrZXJSzPaWM62er-48" style="edgeStyle=orthogonalEdgeStyle;rounded=0;orthogonalLoop=1;jettySize=auto;html=1;exitX=1;exitY=0.5;exitDx=0;exitDy=0;entryX=0;entryY=0.5;entryDx=0;entryDy=0;startArrow=diamond;startFill=1;" edge="1" parent="1" source="Nsb_JRrZXJSzPaWM62er-26" target="Nsb_JRrZXJSzPaWM62er-23">
          <mxGeometry relative="1" as="geometry" />
        </mxCell>
        <mxCell id="Nsb_JRrZXJSzPaWM62er-26" value="&lt;p style=&quot;margin:0px;margin-top:4px;text-align:center;&quot;&gt;ContactBook&lt;/p&gt;&lt;hr size=&quot;1&quot;&gt;&lt;p style=&quot;margin:0px;margin-left:4px;&quot;&gt;+ data&lt;br&gt;&lt;/p&gt;&lt;hr size=&quot;1&quot;&gt;&amp;nbsp;+ add_contact(new_contact)&lt;br&gt;&amp;nbsp;+ edit_name(name, new_name)&lt;br&gt;&amp;nbsp;+ edit_phone(name, old_phone, new_phone)&lt;br&gt;&amp;nbsp;+ edit_address(name, address)&lt;br&gt;&amp;nbsp;+ edit_email(name, email)&lt;br&gt;&amp;nbsp;+ edit_birthday(name, birthday)&lt;br&gt;&amp;nbsp;+ delete_contact(name)&lt;br&gt;&amp;nbsp;+ get_contact(name)&lt;br&gt;&amp;nbsp;+ find(key_word)&lt;br&gt;&amp;nbsp;+ days_to_birthday(days)&lt;p style=&quot;margin:0px;margin-left:4px;&quot;&gt;&lt;/p&gt;" style="verticalAlign=top;align=left;overflow=fill;fontSize=12;fontFamily=Helvetica;html=1;rounded=0;shadow=0;comic=0;labelBackgroundColor=none;strokeWidth=1" vertex="1" parent="1">
          <mxGeometry x="448" y="166" width="250" height="220" as="geometry" />
        </mxCell>
        <mxCell id="Nsb_JRrZXJSzPaWM62er-49" style="edgeStyle=orthogonalEdgeStyle;rounded=0;orthogonalLoop=1;jettySize=auto;html=1;exitX=1;exitY=0.5;exitDx=0;exitDy=0;entryX=0;entryY=0.5;entryDx=0;entryDy=0;startArrow=diamond;startFill=1;" edge="1" parent="1" source="Nsb_JRrZXJSzPaWM62er-27" target="Nsb_JRrZXJSzPaWM62er-25">
          <mxGeometry relative="1" as="geometry" />
        </mxCell>
        <mxCell id="Nsb_JRrZXJSzPaWM62er-27" value="&lt;p style=&quot;margin:0px;margin-top:4px;text-align:center;&quot;&gt;NoteBook&lt;/p&gt;&lt;hr size=&quot;1&quot;&gt;&lt;p style=&quot;margin:0px;margin-left:4px;&quot;&gt;+ data&lt;/p&gt;&lt;hr size=&quot;1&quot;&gt;&amp;nbsp;+ add_record(record)&lt;br&gt;&amp;nbsp;+ find(keyword, tag_only)&lt;br&gt;&amp;nbsp;+ delete(title)&lt;br&gt;&amp;nbsp;+ get_note(title)&lt;br&gt;&amp;nbsp;+ iterator(amount)&lt;br&gt;&lt;p style=&quot;margin:0px;margin-left:4px;&quot;&gt;&lt;/p&gt;" style="verticalAlign=top;align=left;overflow=fill;fontSize=12;fontFamily=Helvetica;html=1;rounded=0;shadow=0;comic=0;labelBackgroundColor=none;strokeWidth=1" vertex="1" parent="1">
          <mxGeometry x="480.5" y="656" width="185" height="140" as="geometry" />
        </mxCell>
        <mxCell id="Nsb_JRrZXJSzPaWM62er-50" style="edgeStyle=orthogonalEdgeStyle;rounded=0;orthogonalLoop=1;jettySize=auto;html=1;exitX=1;exitY=0.25;exitDx=0;exitDy=0;entryX=0;entryY=0.5;entryDx=0;entryDy=0;startArrow=diamond;startFill=1;" edge="1" parent="1" source="Nsb_JRrZXJSzPaWM62er-28" target="Nsb_JRrZXJSzPaWM62er-26">
          <mxGeometry relative="1" as="geometry" />
        </mxCell>
        <mxCell id="Nsb_JRrZXJSzPaWM62er-51" style="edgeStyle=orthogonalEdgeStyle;rounded=0;orthogonalLoop=1;jettySize=auto;html=1;exitX=1;exitY=0.75;exitDx=0;exitDy=0;entryX=0;entryY=0.5;entryDx=0;entryDy=0;startArrow=diamond;startFill=1;" edge="1" parent="1" source="Nsb_JRrZXJSzPaWM62er-28" target="Nsb_JRrZXJSzPaWM62er-27">
          <mxGeometry relative="1" as="geometry" />
        </mxCell>
        <mxCell id="Nsb_JRrZXJSzPaWM62er-28" value="&lt;p style=&quot;margin:0px;margin-top:4px;text-align:center;&quot;&gt;Assistant&lt;/p&gt;&lt;hr size=&quot;1&quot;&gt;&lt;p style=&quot;margin:0px;margin-left:4px;&quot;&gt;&amp;nbsp;+ running &lt;br&gt;&amp;nbsp;+ contact_book&lt;br&gt;&amp;nbsp;+ notes_book&lt;br&gt;&lt;/p&gt;&lt;hr size=&quot;1&quot;&gt;&amp;nbsp;+ validated_input(verify_cls, request, completer, allow_empty)&lt;br&gt;&amp;nbsp;+ save()&lt;br&gt;&amp;nbsp;+ load()&lt;br&gt;&amp;nbsp;+ help()&lt;br&gt;&amp;nbsp;+ list_command()&lt;br&gt;&amp;nbsp;+ about()&lt;br&gt;&amp;nbsp;+ exit_command()&lt;br&gt;&amp;nbsp;+ add_command()&lt;br&gt;&amp;nbsp;+ remove_command()&lt;br&gt;&amp;nbsp;+ add_phone_command()&lt;br&gt;&amp;nbsp;+ rm_phone_command()&lt;br&gt;&amp;nbsp;+ edit_phone_command()&lt;br&gt;&amp;nbsp;+ edit_name_command()&lt;br&gt;&amp;nbsp;+ edit_address_command()&lt;br&gt;&amp;nbsp;+ edit_email_command()&lt;br&gt;&amp;nbsp;+ edit_birthday_command()&lt;br&gt;&amp;nbsp;+ search_command()&lt;br&gt;&amp;nbsp;+ show_command()&lt;br&gt;&amp;nbsp;+ show_notes_command()&lt;br&gt;&amp;nbsp;+ add_note_command()&lt;br&gt;&amp;nbsp;+ add_tag_command()&lt;br&gt;&amp;nbsp;+ rm_tag_command()&lt;br&gt;&amp;nbsp;+ edit_tag_command()&lt;br&gt;&amp;nbsp;+ rm_note_command()&lt;br&gt;&amp;nbsp;+ search_note_command()&lt;br&gt;&amp;nbsp;+ search_note_tag_command()&lt;br&gt;&amp;nbsp;+ sort_command()&lt;br&gt;&amp;nbsp;+ birthday_command()&lt;br&gt;&amp;nbsp;+ main_loop()&lt;br&gt;&lt;p style=&quot;margin:0px;margin-left:4px;&quot;&gt;&lt;/p&gt;" style="verticalAlign=top;align=left;overflow=fill;fontSize=12;fontFamily=Helvetica;html=1;rounded=0;shadow=0;comic=0;labelBackgroundColor=none;strokeWidth=1" vertex="1" parent="1">
          <mxGeometry x="29" y="166" width="340" height="520" as="geometry" />
        </mxCell>
        <mxCell id="Nsb_JRrZXJSzPaWM62er-32" style="edgeStyle=orthogonalEdgeStyle;rounded=0;orthogonalLoop=1;jettySize=auto;html=1;exitX=1;exitY=0.5;exitDx=0;exitDy=0;endArrow=block;endFill=0;startArrow=none;startFill=0;" edge="1" parent="1" source="Nsb_JRrZXJSzPaWM62er-19" target="Nsb_JRrZXJSzPaWM62er-3">
          <mxGeometry relative="1" as="geometry" />
        </mxCell>
        <mxCell id="Nsb_JRrZXJSzPaWM62er-34" style="edgeStyle=orthogonalEdgeStyle;rounded=0;orthogonalLoop=1;jettySize=auto;html=1;exitX=1;exitY=0.5;exitDx=0;exitDy=0;entryX=0.75;entryY=1;entryDx=0;entryDy=0;endArrow=block;endFill=0;" edge="1" parent="1" source="Nsb_JRrZXJSzPaWM62er-16" target="Nsb_JRrZXJSzPaWM62er-3">
          <mxGeometry relative="1" as="geometry" />
        </mxCell>
        <mxCell id="Nsb_JRrZXJSzPaWM62er-36" style="edgeStyle=orthogonalEdgeStyle;rounded=0;orthogonalLoop=1;jettySize=auto;html=1;exitX=1;exitY=0.5;exitDx=0;exitDy=0;entryX=0.384;entryY=1;entryDx=0;entryDy=0;endArrow=block;endFill=0;entryPerimeter=0;" edge="1" parent="1" source="Nsb_JRrZXJSzPaWM62er-21" target="Nsb_JRrZXJSzPaWM62er-3">
          <mxGeometry relative="1" as="geometry" />
        </mxCell>
        <mxCell id="Nsb_JRrZXJSzPaWM62er-37" style="edgeStyle=orthogonalEdgeStyle;rounded=0;orthogonalLoop=1;jettySize=auto;html=1;exitX=1;exitY=0.5;exitDx=0;exitDy=0;endArrow=block;endFill=0;entryX=0.229;entryY=0.989;entryDx=0;entryDy=0;entryPerimeter=0;" edge="1" parent="1" source="Nsb_JRrZXJSzPaWM62er-20" target="Nsb_JRrZXJSzPaWM62er-3">
          <mxGeometry relative="1" as="geometry" />
        </mxCell>
        <mxCell id="Nsb_JRrZXJSzPaWM62er-38" style="edgeStyle=orthogonalEdgeStyle;rounded=0;orthogonalLoop=1;jettySize=auto;html=1;exitX=1;exitY=0.5;exitDx=0;exitDy=0;entryX=0.05;entryY=0.997;entryDx=0;entryDy=0;entryPerimeter=0;endArrow=block;endFill=0;" edge="1" parent="1" source="Nsb_JRrZXJSzPaWM62er-6" target="Nsb_JRrZXJSzPaWM62er-3">
          <mxGeometry relative="1" as="geometry" />
        </mxCell>
      </root>
    </mxGraphModel>
  </diagram>
</mxfile>
